<?xml version="1.0" encoding="UTF-8" standalone="no"?><svg xmlns="http://www.w3.org/2000/svg" xmlns:xlink="http://www.w3.org/1999/xlink" contentScriptType="application/ecmascript" contentStyleType="text/css" height="336px" preserveAspectRatio="none" style="width:324px;height:336px;background:#FFFFFF;" version="1.1" viewBox="0 0 324 336" width="324px" zoomAndPan="magnify"><defs><filter height="300%" id="f13i31wosayt2o" width="300%" x="-1" y="-1"><feGaussianBlur result="blurOut" stdDeviation="2.0"/><feColorMatrix in="blurOut" result="blurOut2" type="matrix" values="0 0 0 0 0 0 0 0 0 0 0 0 0 0 0 0 0 0 .4 0"/><feOffset dx="4.0" dy="4.0" in="blurOut2" result="blurOut3"/><feBlend in="SourceGraphic" in2="blurOut3" mode="normal"/></filter></defs><g><!--MD5=[c86ce95fe6226f2d2796c0513d8e83fe]
class Engine--><rect codeLine="1" fill="#FEFECE" filter="url(#f13i31wosayt2o)" height="73.6094" id="Engine" style="stroke:#A80036;stroke-width:1.5;" width="151" x="84" y="7"/><ellipse cx="133.75" cy="23" fill="#B4A7E5" rx="11" ry="11" style="stroke:#A80036;stroke-width:1.0;"/><path d="M129.6719,18.7656 L129.6719,16.6094 L137.0625,16.6094 L137.0625,18.7656 L134.5938,18.7656 L134.5938,26.8438 L137.0625,26.8438 L137.0625,29 L129.6719,29 L129.6719,26.8438 L132.1406,26.8438 L132.1406,18.7656 L129.6719,18.7656 Z " fill="#000000"/><text fill="#000000" font-family="sans-serif" font-size="12" font-style="italic" lengthAdjust="spacing" textLength="43" x="154.25" y="27.1543">Engine</text><line style="stroke:#A80036;stroke-width:1.5;" x1="85" x2="234" y1="39" y2="39"/><line style="stroke:#A80036;stroke-width:1.5;" x1="85" x2="234" y1="47" y2="47"/><text fill="#000000" font-family="sans-serif" font-size="11" lengthAdjust="spacing" textLength="139" x="90" y="61.2104">start('starting engine...')</text><text fill="#000000" font-family="sans-serif" font-size="11" lengthAdjust="spacing" textLength="36" x="90" y="74.0151">type ()</text><!--MD5=[c2ae371e4ea7b9092e27186ce859e29a]
class BaseEngine--><rect codeLine="6" fill="#FEFECE" filter="url(#f13i31wosayt2o)" height="60.8047" id="BaseEngine" style="stroke:#A80036;stroke-width:1.5;" width="151" x="84" y="141"/><ellipse cx="119.25" cy="157" fill="#A9DCDF" rx="11" ry="11" style="stroke:#A80036;stroke-width:1.0;"/><path d="M119.3594,152.3438 L118.2031,157.4219 L120.5313,157.4219 L119.3594,152.3438 Z M117.875,150.1094 L120.8594,150.1094 L124.2188,162.5 L121.7656,162.5 L121,159.4375 L117.7188,159.4375 L116.9688,162.5 L114.5313,162.5 L117.875,150.1094 Z " fill="#000000"/><text fill="#000000" font-family="sans-serif" font-size="12" font-style="italic" lengthAdjust="spacing" textLength="74" x="137.75" y="161.1543">BaseEngine</text><line style="stroke:#A80036;stroke-width:1.5;" x1="85" x2="234" y1="173" y2="173"/><line style="stroke:#A80036;stroke-width:1.5;" x1="85" x2="234" y1="181" y2="181"/><text fill="#000000" font-family="sans-serif" font-size="11" lengthAdjust="spacing" textLength="139" x="90" y="195.2104">start('starting engine...')</text><!--MD5=[a0a46848ae7a3dc72ed46fcd7a080cf7]
class ElectricMotor--><rect codeLine="10" fill="#FEFECE" filter="url(#f13i31wosayt2o)" height="60.8047" id="ElectricMotor" style="stroke:#A80036;stroke-width:1.5;" width="137" x="7" y="262"/><ellipse cx="32.35" cy="278" fill="#ADD1B2" rx="11" ry="11" style="stroke:#A80036;stroke-width:1.0;"/><path d="M35.3188,283.6406 Q34.7406,283.9375 34.1,284.0781 Q33.4594,284.2344 32.7563,284.2344 Q30.2563,284.2344 28.9281,282.5938 Q27.6156,280.9375 27.6156,277.8125 Q27.6156,274.6875 28.9281,273.0313 Q30.2563,271.375 32.7563,271.375 Q33.4594,271.375 34.1,271.5313 Q34.7563,271.6875 35.3188,271.9844 L35.3188,274.7031 Q34.6938,274.125 34.1,273.8594 Q33.5063,273.5781 32.8813,273.5781 Q31.5375,273.5781 30.85,274.6563 Q30.1625,275.7188 30.1625,277.8125 Q30.1625,279.9063 30.85,280.9844 Q31.5375,282.0469 32.8813,282.0469 Q33.5063,282.0469 34.1,281.7813 Q34.6938,281.5 35.3188,280.9219 L35.3188,283.6406 Z " fill="#000000"/><text fill="#000000" font-family="sans-serif" font-size="12" lengthAdjust="spacing" textLength="82" x="48.65" y="282.1543">ElectricMotor</text><line style="stroke:#A80036;stroke-width:1.5;" x1="8" x2="143" y1="294" y2="294"/><line style="stroke:#A80036;stroke-width:1.5;" x1="8" x2="143" y1="302" y2="302"/><text fill="#000000" font-family="sans-serif" font-size="11" lengthAdjust="spacing" textLength="125" x="13" y="316.2104">type ('Electric Engine')</text><!--MD5=[f4651df156ae38a58e1ccd53cb8abce2]
class DieselMotor--><rect codeLine="16" fill="#FEFECE" filter="url(#f13i31wosayt2o)" height="60.8047" id="DieselMotor" style="stroke:#A80036;stroke-width:1.5;" width="131" x="179" y="262"/><ellipse cx="205.25" cy="278" fill="#ADD1B2" rx="11" ry="11" style="stroke:#A80036;stroke-width:1.0;"/><path d="M208.2188,283.6406 Q207.6406,283.9375 207,284.0781 Q206.3594,284.2344 205.6563,284.2344 Q203.1563,284.2344 201.8281,282.5938 Q200.5156,280.9375 200.5156,277.8125 Q200.5156,274.6875 201.8281,273.0313 Q203.1563,271.375 205.6563,271.375 Q206.3594,271.375 207,271.5313 Q207.6563,271.6875 208.2188,271.9844 L208.2188,274.7031 Q207.5938,274.125 207,273.8594 Q206.4063,273.5781 205.7813,273.5781 Q204.4375,273.5781 203.75,274.6563 Q203.0625,275.7188 203.0625,277.8125 Q203.0625,279.9063 203.75,280.9844 Q204.4375,282.0469 205.7813,282.0469 Q206.4063,282.0469 207,281.7813 Q207.5938,281.5 208.2188,280.9219 L208.2188,283.6406 Z " fill="#000000"/><text fill="#000000" font-family="sans-serif" font-size="12" lengthAdjust="spacing" textLength="74" x="221.75" y="282.1543">DieselMotor</text><line style="stroke:#A80036;stroke-width:1.5;" x1="180" x2="309" y1="294" y2="294"/><line style="stroke:#A80036;stroke-width:1.5;" x1="180" x2="309" y1="302" y2="302"/><text fill="#000000" font-family="sans-serif" font-size="11" lengthAdjust="spacing" textLength="119" x="185" y="316.2104">type ('Diesel Engine')</text><!--MD5=[1127a69d586c2379ebea4f3306318693]
reverse link BaseEngine to ElectricMotor--><path codeLine="21" d="M126.57,218.9349 C116.5198,233.4119 105.742,248.9371 96.69,261.9764 " fill="none" id="BaseEngine-backto-ElectricMotor" style="stroke:#A80036;stroke-width:1.0;"/><polygon fill="none" points="121.1476,214.4707,138.3033,202.0334,132.6481,222.4545,121.1476,214.4707" style="stroke:#A80036;stroke-width:1.0;"/><!--MD5=[dccbc427c3886a7e3853bfc4f2ad1a92]
reverse link BaseEngine to DieselMotor--><path codeLine="22" d="M192.487,218.458 C202.7519,233.0704 213.7973,248.7938 223.0578,261.9764 " fill="none" id="BaseEngine-backto-DieselMotor" style="stroke:#A80036;stroke-width:1.0;"/><polygon fill="none" points="186.7176,222.4228,180.9491,202.0334,198.1735,214.3752,186.7176,222.4228" style="stroke:#A80036;stroke-width:1.0;"/><!--MD5=[6aea1f21981efb17acdb6cdf7bdbf1c7]
reverse link Engine to BaseEngine--><path codeLine="23" d="M159.5,101.2952 C159.5,114.9403 159.5,128.9839 159.5,140.8909 " fill="none" id="Engine-backto-BaseEngine" style="stroke:#A80036;stroke-width:1.0;"/><polygon fill="none" points="152.5001,101.2211,159.5,81.221,166.5001,101.221,152.5001,101.2211" style="stroke:#A80036;stroke-width:1.0;"/><!--MD5=[b6ea623bb31c79e1957fe7d0a57af3c7]
@startuml
interface Engine {
  start('starting engine...')
  type ()
}

abstract class BaseEngine {
   start('starting engine...')
}

class ElectricMotor {
  
  type ('Electric Engine')

}

class DieselMotor {
  
  type ('Diesel Engine')
}

BaseEngine <|- - ElectricMotor
BaseEngine <|- - DieselMotor
Engine <|- - BaseEngine
@enduml

PlantUML version 1.2021.7(Sun May 23 12:40:07 UTC 2021)
(GPL source distribution)
Java Runtime: OpenJDK Runtime Environment
JVM: OpenJDK 64-Bit Server VM
Default Encoding: UTF-8
Language: en
Country: US
--></g></svg>