<?xml version="1.0" encoding="UTF-8" standalone="no"?><svg xmlns="http://www.w3.org/2000/svg" xmlns:xlink="http://www.w3.org/1999/xlink" contentScriptType="application/ecmascript" contentStyleType="text/css" height="336px" preserveAspectRatio="none" style="width:510px;height:336px;background:#FFFFFF;" version="1.1" viewBox="0 0 510 336" width="510px" zoomAndPan="magnify"><defs><filter height="300%" id="f1tbwnq61atfmc" width="300%" x="-1" y="-1"><feGaussianBlur result="blurOut" stdDeviation="2.0"/><feColorMatrix in="blurOut" result="blurOut2" type="matrix" values="0 0 0 0 0 0 0 0 0 0 0 0 0 0 0 0 0 0 .4 0"/><feOffset dx="4.0" dy="4.0" in="blurOut2" result="blurOut3"/><feBlend in="SourceGraphic" in2="blurOut3" mode="normal"/></filter></defs><g><!--MD5=[3f0ef310aaa84a542276992c5216544d]
class Car--><rect codeLine="1" fill="#FEFECE" filter="url(#f1tbwnq61atfmc)" height="60.8047" id="Car" style="stroke:#A80036;stroke-width:1.5;" width="92" x="207" y="7"/><ellipse cx="239.55" cy="23" fill="#B4A7E5" rx="11" ry="11" style="stroke:#A80036;stroke-width:1.0;"/><path d="M235.4719,18.7656 L235.4719,16.6094 L242.8625,16.6094 L242.8625,18.7656 L240.3938,18.7656 L240.3938,26.8438 L242.8625,26.8438 L242.8625,29 L235.4719,29 L235.4719,26.8438 L237.9406,26.8438 L237.9406,18.7656 L235.4719,18.7656 Z " fill="#000000"/><text fill="#000000" font-family="sans-serif" font-size="12" font-style="italic" lengthAdjust="spacing" textLength="21" x="257.45" y="27.1543">Car</text><line style="stroke:#A80036;stroke-width:1.5;" x1="208" x2="298" y1="39" y2="39"/><line style="stroke:#A80036;stroke-width:1.5;" x1="208" x2="298" y1="47" y2="47"/><ellipse cx="218" cy="58" fill="#84BE84" rx="3" ry="3" style="stroke:#038048;stroke-width:1.0;"/><text fill="#000000" font-family="sans-serif" font-size="11" lengthAdjust="spacing" textLength="66" x="227" y="61.2104">build(): void</text><!--MD5=[7414a25e2eff3aa6a8c38016c0d43f83]
class CarDecorator--><rect codeLine="5" fill="#FEFECE" filter="url(#f1tbwnq61atfmc)" height="60.8047" id="CarDecorator" style="stroke:#A80036;stroke-width:1.5;" width="116" x="126" y="128"/><ellipse cx="141" cy="144" fill="#A9DCDF" rx="11" ry="11" style="stroke:#A80036;stroke-width:1.0;"/><path d="M141.1094,139.3438 L139.9531,144.4219 L142.2813,144.4219 L141.1094,139.3438 Z M139.625,137.1094 L142.6094,137.1094 L145.9688,149.5 L143.5156,149.5 L142.75,146.4375 L139.4688,146.4375 L138.7188,149.5 L136.2813,149.5 L139.625,137.1094 Z " fill="#000000"/><text fill="#000000" font-family="sans-serif" font-size="12" font-style="italic" lengthAdjust="spacing" textLength="84" x="155" y="148.1543">CarDecorator</text><line style="stroke:#A80036;stroke-width:1.5;" x1="127" x2="241" y1="160" y2="160"/><line style="stroke:#A80036;stroke-width:1.5;" x1="127" x2="241" y1="168" y2="168"/><ellipse cx="137" cy="179" fill="#84BE84" rx="3" ry="3" style="stroke:#038048;stroke-width:1.0;"/><text fill="#000000" font-family="sans-serif" font-size="11" lengthAdjust="spacing" textLength="66" x="146" y="182.2104">build(): void</text><!--MD5=[3d4911f658bf28a18bbdda28e39593ef]
class ConcreteDecoratorA--><rect codeLine="9" fill="#FEFECE" filter="url(#f1tbwnq61atfmc)" height="73.6094" id="ConcreteDecoratorA" style="stroke:#A80036;stroke-width:1.5;" width="160" x="7" y="249"/><ellipse cx="22" cy="265" fill="#ADD1B2" rx="11" ry="11" style="stroke:#A80036;stroke-width:1.0;"/><path d="M24.9688,270.6406 Q24.3906,270.9375 23.75,271.0781 Q23.1094,271.2344 22.4063,271.2344 Q19.9063,271.2344 18.5781,269.5938 Q17.2656,267.9375 17.2656,264.8125 Q17.2656,261.6875 18.5781,260.0313 Q19.9063,258.375 22.4063,258.375 Q23.1094,258.375 23.75,258.5313 Q24.4063,258.6875 24.9688,258.9844 L24.9688,261.7031 Q24.3438,261.125 23.75,260.8594 Q23.1563,260.5781 22.5313,260.5781 Q21.1875,260.5781 20.5,261.6563 Q19.8125,262.7188 19.8125,264.8125 Q19.8125,266.9063 20.5,267.9844 Q21.1875,269.0469 22.5313,269.0469 Q23.1563,269.0469 23.75,268.7813 Q24.3438,268.5 24.9688,267.9219 L24.9688,270.6406 Z " fill="#000000"/><text fill="#000000" font-family="sans-serif" font-size="12" lengthAdjust="spacing" textLength="128" x="36" y="269.1543">ConcreteDecoratorA</text><line style="stroke:#A80036;stroke-width:1.5;" x1="8" x2="166" y1="281" y2="281"/><line style="stroke:#A80036;stroke-width:1.5;" x1="8" x2="166" y1="289" y2="289"/><rect fill="#F24D5C" height="6" style="stroke:#C82930;stroke-width:1.0;" width="6" x="15" y="297"/><text fill="#000000" font-family="sans-serif" font-size="11" lengthAdjust="spacing" textLength="117" x="27" y="303.2104">additionalFunctionA()</text><ellipse cx="18" cy="312.8047" fill="#84BE84" rx="3" ry="3" style="stroke:#038048;stroke-width:1.0;"/><text fill="#000000" font-family="sans-serif" font-size="11" lengthAdjust="spacing" textLength="66" x="27" y="316.0151">build(): void</text><!--MD5=[215fe3d16f92b5b74e11efe33e544b1e]
class ConcreteDecoratorB--><rect codeLine="14" fill="#FEFECE" filter="url(#f1tbwnq61atfmc)" height="73.6094" id="ConcreteDecoratorB" style="stroke:#A80036;stroke-width:1.5;" width="160" x="202" y="249"/><ellipse cx="217" cy="265" fill="#ADD1B2" rx="11" ry="11" style="stroke:#A80036;stroke-width:1.0;"/><path d="M219.9688,270.6406 Q219.3906,270.9375 218.75,271.0781 Q218.1094,271.2344 217.4063,271.2344 Q214.9063,271.2344 213.5781,269.5938 Q212.2656,267.9375 212.2656,264.8125 Q212.2656,261.6875 213.5781,260.0313 Q214.9063,258.375 217.4063,258.375 Q218.1094,258.375 218.75,258.5313 Q219.4063,258.6875 219.9688,258.9844 L219.9688,261.7031 Q219.3438,261.125 218.75,260.8594 Q218.1563,260.5781 217.5313,260.5781 Q216.1875,260.5781 215.5,261.6563 Q214.8125,262.7188 214.8125,264.8125 Q214.8125,266.9063 215.5,267.9844 Q216.1875,269.0469 217.5313,269.0469 Q218.1563,269.0469 218.75,268.7813 Q219.3438,268.5 219.9688,267.9219 L219.9688,270.6406 Z " fill="#000000"/><text fill="#000000" font-family="sans-serif" font-size="12" lengthAdjust="spacing" textLength="128" x="231" y="269.1543">ConcreteDecoratorB</text><line style="stroke:#A80036;stroke-width:1.5;" x1="203" x2="361" y1="281" y2="281"/><line style="stroke:#A80036;stroke-width:1.5;" x1="203" x2="361" y1="289" y2="289"/><rect fill="#F24D5C" height="6" style="stroke:#C82930;stroke-width:1.0;" width="6" x="210" y="297"/><text fill="#000000" font-family="sans-serif" font-size="11" lengthAdjust="spacing" textLength="118" x="222" y="303.2104">additionalFunctionB()</text><ellipse cx="213" cy="312.8047" fill="#84BE84" rx="3" ry="3" style="stroke:#038048;stroke-width:1.0;"/><text fill="#000000" font-family="sans-serif" font-size="11" lengthAdjust="spacing" textLength="66" x="222" y="316.0151">build(): void</text><!--MD5=[baa39cbf8264b2e8d13e30f85a84b857]
class VW--><rect codeLine="19" fill="#FEFECE" filter="url(#f1tbwnq61atfmc)" height="60.8047" id="VW" style="stroke:#A80036;stroke-width:1.5;" width="92" x="277" y="128"/><ellipse cx="310.45" cy="144" fill="#ADD1B2" rx="11" ry="11" style="stroke:#A80036;stroke-width:1.0;"/><path d="M313.4188,149.6406 Q312.8406,149.9375 312.2,150.0781 Q311.5594,150.2344 310.8563,150.2344 Q308.3563,150.2344 307.0281,148.5938 Q305.7156,146.9375 305.7156,143.8125 Q305.7156,140.6875 307.0281,139.0313 Q308.3563,137.375 310.8563,137.375 Q311.5594,137.375 312.2,137.5313 Q312.8563,137.6875 313.4188,137.9844 L313.4188,140.7031 Q312.7938,140.125 312.2,139.8594 Q311.6063,139.5781 310.9813,139.5781 Q309.6375,139.5781 308.95,140.6563 Q308.2625,141.7188 308.2625,143.8125 Q308.2625,145.9063 308.95,146.9844 Q309.6375,148.0469 310.9813,148.0469 Q311.6063,148.0469 312.2,147.7813 Q312.7938,147.5 313.4188,146.9219 L313.4188,149.6406 Z " fill="#000000"/><text fill="#000000" font-family="sans-serif" font-size="12" lengthAdjust="spacing" textLength="19" x="328.55" y="148.1543">VW</text><line style="stroke:#A80036;stroke-width:1.5;" x1="278" x2="368" y1="160" y2="160"/><line style="stroke:#A80036;stroke-width:1.5;" x1="278" x2="368" y1="168" y2="168"/><ellipse cx="288" cy="179" fill="#84BE84" rx="3" ry="3" style="stroke:#038048;stroke-width:1.0;"/><text fill="#000000" font-family="sans-serif" font-size="11" lengthAdjust="spacing" textLength="66" x="297" y="182.2104">build(): void</text><!--MD5=[dd559a5edb6a63783093c7c9371f8640]
class BMW--><rect codeLine="23" fill="#FEFECE" filter="url(#f1tbwnq61atfmc)" height="60.8047" id="BMW" style="stroke:#A80036;stroke-width:1.5;" width="92" x="404" y="128"/><ellipse cx="432.95" cy="144" fill="#ADD1B2" rx="11" ry="11" style="stroke:#A80036;stroke-width:1.0;"/><path d="M435.9188,149.6406 Q435.3406,149.9375 434.7,150.0781 Q434.0594,150.2344 433.3563,150.2344 Q430.8563,150.2344 429.5281,148.5938 Q428.2156,146.9375 428.2156,143.8125 Q428.2156,140.6875 429.5281,139.0313 Q430.8563,137.375 433.3563,137.375 Q434.0594,137.375 434.7,137.5313 Q435.3563,137.6875 435.9188,137.9844 L435.9188,140.7031 Q435.2938,140.125 434.7,139.8594 Q434.1063,139.5781 433.4813,139.5781 Q432.1375,139.5781 431.45,140.6563 Q430.7625,141.7188 430.7625,143.8125 Q430.7625,145.9063 431.45,146.9844 Q432.1375,148.0469 433.4813,148.0469 Q434.1063,148.0469 434.7,147.7813 Q435.2938,147.5 435.9188,146.9219 L435.9188,149.6406 Z " fill="#000000"/><text fill="#000000" font-family="sans-serif" font-size="12" lengthAdjust="spacing" textLength="29" x="450.05" y="148.1543">BMW</text><line style="stroke:#A80036;stroke-width:1.5;" x1="405" x2="495" y1="160" y2="160"/><line style="stroke:#A80036;stroke-width:1.5;" x1="405" x2="495" y1="168" y2="168"/><ellipse cx="415" cy="179" fill="#84BE84" rx="3" ry="3" style="stroke:#038048;stroke-width:1.0;"/><text fill="#000000" font-family="sans-serif" font-size="11" lengthAdjust="spacing" textLength="66" x="424" y="182.2104">build(): void</text><!--MD5=[674e0540547cc56a5443e2ffd982e4aa]
reverse link Car to BMW--><path codeLine="27" d="M316.6231,76.5781 C344.9896,94.0012 377.7873,114.146 403.7607,130.0992 " fill="none" id="Car-backto-BMW" style="stroke:#A80036;stroke-width:1.0;"/><polygon fill="none" points="312.5662,82.3014,299.1877,65.8691,319.8935,70.3719,312.5662,82.3014" style="stroke:#A80036;stroke-width:1.0;"/><!--MD5=[3524cc08da4da7b76f4c01813567534e]
reverse link Car to VW--><path codeLine="28" d="M280.718,85.4125 C289.014,99.7528 297.8812,115.0804 305.3417,127.9764 " fill="none" id="Car-backto-VW" style="stroke:#A80036;stroke-width:1.0;"/><polygon fill="none" points="274.62,88.8505,270.664,68.0334,286.7382,81.8399,274.62,88.8505" style="stroke:#A80036;stroke-width:1.0;"/><!--MD5=[4553596a24f49e06fca933f24b4df902]
reverse link Car to CarDecorator--><path codeLine="29" d="M213.4684,84.9349 C204.6104,99.4119 196.1704,114.9371 190.1637,127.9764 " fill="none" id="Car-backto-CarDecorator" style="stroke:#A80036;stroke-width:1.0;"/><polygon fill="none" points="207.6353,81.0637,224.345,68.0334,219.4082,88.64,207.6353,81.0637" style="stroke:#A80036;stroke-width:1.0;"/><!--MD5=[18e319b40bb49007f972e377c850e27b]
link Car to CarDecorator--><path codeLine="32" d="M247.4932,68.0334 C240.7881,82.7935 230.8898,100.7373 220.7206,116.7401 " fill="none" id="Car-to-CarDecorator" style="stroke:#A80036;stroke-width:1.0;"/><polygon fill="#FFFFFF" points="213.3097,127.9764,219.9523,125.17,219.9166,117.959,213.274,120.7654,213.3097,127.9764" style="stroke:#A80036;stroke-width:1.0;"/><!--MD5=[4101b50d65dd3747a6eac35a01007437]
reverse link CarDecorator to ConcreteDecoratorA--><path codeLine="30" d="M148.4927,205.1719 C137.538,219.5712 125.6286,235.2253 115.2336,248.8888 " fill="none" id="CarDecorator-backto-ConcreteDecoratorA" style="stroke:#A80036;stroke-width:1.0;"/><polygon fill="none" points="143.0854,200.7183,160.7661,189.0394,154.2275,209.195,143.0854,200.7183" style="stroke:#A80036;stroke-width:1.0;"/><!--MD5=[6379daa9dba004dc6b2a170238a7c0eb]
reverse link CarDecorator to ConcreteDecoratorB--><path codeLine="31" d="M219.8733,205.1719 C230.941,219.5712 242.9732,235.2253 253.4754,248.8888 " fill="none" id="CarDecorator-backto-ConcreteDecoratorB" style="stroke:#A80036;stroke-width:1.0;"/><polygon fill="none" points="214.1117,209.1624,207.4734,189.0394,225.2117,200.6307,214.1117,209.1624" style="stroke:#A80036;stroke-width:1.0;"/><!--MD5=[4325e2004423a77348ff1d66c4209385]
@startuml
interface Car {
  +build(): void
}

abstract class CarDecorator {
  +build(): void
}

class ConcreteDecoratorA {
  -additionalFunctionA()
  +build(): void
}

class ConcreteDecoratorB {
  -additionalFunctionB()
  +build(): void
}
  
class VW {
  +build(): void
} 

class BMW { 
  +build(): void
}  

Car <|- - BMW  
Car <|- - VW
Car <|- - CarDecorator
CarDecorator <|- - ConcreteDecoratorA
CarDecorator <|- - ConcreteDecoratorB
Car - -o CarDecorator
@enduml

PlantUML version 1.2021.7(Sun May 23 12:40:07 UTC 2021)
(GPL source distribution)
Java Runtime: OpenJDK Runtime Environment
JVM: OpenJDK 64-Bit Server VM
Default Encoding: UTF-8
Language: en
Country: US
--></g></svg>